<svg xmlns="http://www.w3.org/2000/svg" width="51.1" height="51.887" viewBox="0 0 51.1 51.887">
  <g id="Group_18495" data-name="Group 18495" transform="matrix(0.966, 0.259, -0.259, 0.966, -1368.525, -451.912)">
    <path id="Path_49636" data-name="Path 49636" d="M-13262.619-22936.072c0-2.246,16.492-23.9,20.283-25.586s19.2,12.91,19.707,14.871-17.939,26.1-19.707,26.1S-13262.619-22933.826-13262.619-22936.072Z" transform="translate(14712.877 23042)" />
    <path id="Path_49626" data-name="Path 49626" d="M-13262.619-22936.072c0-2.246,16.492-23.9,20.283-25.586s19.2,12.91,19.707,14.871-17.939,26.1-19.707,26.1S-13262.619-22933.826-13262.619-22936.072Z" transform="translate(14712.876 23041.998)" fill="none" stroke="#220859" stroke-width="1.5"/>
    <path id="Path_49627" data-name="Path 49627" d="M-13242.029-22961.791s1.768,19.5,0,21.738-20.34,3.914-20.34,3.914" transform="translate(14713.07 23041.996)" fill="none" stroke="#220859" stroke-width="1.5"/>
  </g>
</svg>
