<svg xmlns="http://www.w3.org/2000/svg" width="37.71" height="37.999" viewBox="0 0 37.71 37.999">
  <path id="Path_49680" data-name="Path 49680" d="M.977-220.9q.391-1.172,3.125-1.953a32.444,32.444,0,0,1,6.055-1.074,18.064,18.064,0,0,1,5.762.293q2.441.586,2.246,2.148-2.344,11.914-1.953,32.617,0,1.367-2.051,2.051a17.422,17.422,0,0,1-4.883.781,13.92,13.92,0,0,1-5.078-.684,3.607,3.607,0,0,1-2.637-2.344A96.775,96.775,0,0,1,0-207.129Q0-216.992.977-220.9ZM33.2-188.281q-.2,1.172-2.344,1.758a15.04,15.04,0,0,1-4.98.391,16.037,16.037,0,0,1-4.98-1.074,3.8,3.8,0,0,1-2.539-2.441,106.741,106.741,0,0,1,0-18.262q.781-9.863,2.148-13.574.391-1.172,3.223-1.758a30.375,30.375,0,0,1,6.152-.586,18.028,18.028,0,0,1,5.664.781q2.344.781,2.148,2.344Q34.375-209.18,33.2-188.281Z" transform="translate(0 224.023)" fill="#2bd988"/>
</svg>
