<svg xmlns="http://www.w3.org/2000/svg" width="66.895" height="21.88" viewBox="0 0 66.895 21.88">
  <path id="Path_49610" data-name="Path 49610" d="M-60.976,7.612h-.01a8.642,8.642,0,0,1-1.272-.087,1.94,1.94,0,0,1-.829-.295c-.119.021-.258.052-.414.093l-.034.008c-.228.048-.456.094-.678.136a3.656,3.656,0,0,1-.67.074H-64.9a5.159,5.159,0,0,1-2.311-.6,5.655,5.655,0,0,1-1.778-1.532,8.3,8.3,0,0,1-1.252-2.4A13.543,13.543,0,0,1-70.872.1a19.97,19.97,0,0,1,.256-5.872,16.231,16.231,0,0,1,.982-3.251A11.131,11.131,0,0,1-68-11.764a7.008,7.008,0,0,1,2.35-1.875l.015-.007a6.5,6.5,0,0,1,2.7-.622,5.642,5.642,0,0,1,1.216.133l.021.005a4.953,4.953,0,0,1,3.377,2.76,6.843,6.843,0,0,1,.583,3.523,3.525,3.525,0,0,1-.183.861,1.508,1.508,0,0,1-.732.939l-.056.028-.06.018a2.9,2.9,0,0,1-.818.1,5.312,5.312,0,0,1-.589-.036,8.691,8.691,0,0,1-1.512-.308A4.754,4.754,0,0,1-62.9-6.757a.943.943,0,0,1-.453-.861,2.659,2.659,0,0,1,.06-.409l.012-.055.021-.052a.338.338,0,0,0,.015-.045,1.634,1.634,0,0,0,.011-.43l0-.026h0l-.005,0a2.65,2.65,0,0,0-1.1,1.3,11.123,11.123,0,0,0-.847,2.653,14.6,14.6,0,0,0-.186,4.223A9.09,9.09,0,0,0-65.129.886,3.576,3.576,0,0,0-64.722,1.9a3.462,3.462,0,0,0,.383-.675,11.735,11.735,0,0,0,.408-1.381c.085-.363.175-.7.267-1.012a3.08,3.08,0,0,1,.387-.869l.021-.03.023-.027a1.541,1.541,0,0,1,1.17-.393,11.149,11.149,0,0,1,1.352.028,8.452,8.452,0,0,1,1.324.195c.259.063,1.047.253,1.047.961v.046l-.006.045c-.163,1.233-.3,2.572-.4,3.981a23.436,23.436,0,0,0,0,3.8l.008.089-.015.088c-.1.592-.755.708-1.036.758a8.212,8.212,0,0,1-1.173.108ZM-62.246,6.1a1.208,1.208,0,0,0,.2.043A7.234,7.234,0,0,0-61,6.218a7.438,7.438,0,0,0,.816-.064,25.861,25.861,0,0,1,.04-3.489c.094-1.259.212-2.465.352-3.592a7.351,7.351,0,0,0-1.029-.143A9.777,9.777,0,0,0-62-1.095c-.095,0-.167.011-.22.017a2.849,2.849,0,0,0-.11.311c-.084.28-.167.593-.246.932a13,13,0,0,1-.471,1.578l-.017.041c-.423.925-.834,1.4-1.33,1.541a1.266,1.266,0,0,1-.344.049,1.345,1.345,0,0,1-1.148-.7,4.9,4.9,0,0,1-.595-1.436,10.474,10.474,0,0,1-.284-1.547,15.984,15.984,0,0,1,.2-4.627v-.008A12.512,12.512,0,0,1-65.6-7.939a3.97,3.97,0,0,1,1.736-1.943,1.885,1.885,0,0,1,.836-.23,1.089,1.089,0,0,1,.563.149,1.42,1.42,0,0,1,.613,1.209,3.049,3.049,0,0,1-.023.81l-.005.028q-.012.058-.027.115a4.89,4.89,0,0,0,.615.222,7.3,7.3,0,0,0,1.269.259,3.923,3.923,0,0,0,.433.027,1.983,1.983,0,0,0,.3-.02.794.794,0,0,0,.042-.106,2.184,2.184,0,0,0,.118-.518,5.49,5.49,0,0,0-.441-2.815l0-.01a3.569,3.569,0,0,0-2.456-2.015,4.246,4.246,0,0,0-.9-.1,5.112,5.112,0,0,0-2.109.493,5.626,5.626,0,0,0-1.876,1.5,9.74,9.74,0,0,0-1.428,2.4,14.829,14.829,0,0,0-.9,2.969,18.575,18.575,0,0,0-.239,5.46,12.153,12.153,0,0,0,.56,2.614,6.912,6.912,0,0,0,1.035,2,4.268,4.268,0,0,0,1.337,1.158,3.775,3.775,0,0,0,1.68.43,2.4,2.4,0,0,0,.4-.05c.208-.039.421-.082.634-.127a5.849,5.849,0,0,1,.646-.135A2.079,2.079,0,0,1-62.9,5.81a.79.79,0,0,1,.581.222ZM-75.569,7.6c-.134,0-.288-.006-.471-.017a5.412,5.412,0,0,1-.905-.133,1.214,1.214,0,0,1-.929-.685l-.014-.036-.01-.037C-78.283,5.3-78.76,3.725-79.315,2q-.355-1.1-.721-2.092c-.114,2.393-.162,4.516-.141,6.326v.027l0,.027c-.021.322-.2.766-.926,1.053a3.992,3.992,0,0,1-1.353.252,3.769,3.769,0,0,1-1.433-.188,1.656,1.656,0,0,1-1.116-1.218l-.01-.055a33.505,33.505,0,0,1-.247-4.1c-.03-1.809-.015-3.786.044-5.876s.161-4.027.3-5.75a21.545,21.545,0,0,1,.539-3.758l.013-.046.02-.044a1.2,1.2,0,0,1,.84-.637,4.31,4.31,0,0,1,.867-.139,6.829,6.829,0,0,1,.8-.01,3.947,3.947,0,0,1,1.239.238,2.256,2.256,0,0,1,1.109.892,1.63,1.63,0,0,1,.133.215A34.856,34.856,0,0,1-77.564-8.79c.061-.813.129-1.558.2-2.226a13.7,13.7,0,0,1,.407-2.343l.012-.038.016-.036a1.419,1.419,0,0,1,1.274-.759,5.258,5.258,0,0,1,1.5.079,4.9,4.9,0,0,1,1.445.489,1.445,1.445,0,0,1,.887,1.286v.031l0,.031c-.188,2.11-.393,4.987-.61,8.554s-.326,6.757-.326,9.5v.024a1.647,1.647,0,0,1-.524,1.247,2.065,2.065,0,0,1-1.033.462,6.418,6.418,0,0,1-1.026.08C-75.408,7.6-75.483,7.6-75.569,7.6ZM-76.617,6.1a4.019,4.019,0,0,0,.666.1c.151.01.279.015.382.015.073,0,.119,0,.145,0l.029,0h.029a5.063,5.063,0,0,0,.824-.061A.713.713,0,0,0-74.2,6a.516.516,0,0,0,.046-.233c0-2.773.111-5.995.329-9.576.214-3.521.417-6.377.6-8.489a.771.771,0,0,0-.151-.1,3.523,3.523,0,0,0-1.034-.344,3.885,3.885,0,0,0-1.1-.063,1.253,1.253,0,0,0-.163.027,14.8,14.8,0,0,0-.307,1.916c-.11,1-.208,2.178-.289,3.506a11.472,11.472,0,0,1-.126,1.427c-.131.692-.589.766-.78.766a.783.783,0,0,1-.7-.449,6.309,6.309,0,0,1-.356-.885l0-.006-.227-.681a40.654,40.654,0,0,0-2.131-5.031l-.013-.024a.239.239,0,0,0-.023-.035l-.026-.037a.872.872,0,0,0-.438-.365,2.559,2.559,0,0,0-.808-.152h-.016a5.439,5.439,0,0,0-.642.008,3.009,3.009,0,0,0-.549.082,23.975,23.975,0,0,0-.431,3.265c-.14,1.7-.241,3.607-.3,5.675S-83.9.226-83.871,2.015a33.292,33.292,0,0,0,.227,3.879c.025.092.068.146.207.194a2.387,2.387,0,0,0,.912.114h.02a2.63,2.63,0,0,0,.887-.155l.045-.019c-.017-2.048.05-4.475.2-7.22.024-.647.061-1.215.109-1.687l0-.033.007-.033a.763.763,0,0,1,.749-.708.723.723,0,0,1,.45.159,1.15,1.15,0,0,1,.3.41l.011.023a43.764,43.764,0,0,1,1.756,4.636C-77.457,3.224-77,4.744-76.617,6.1ZM-89.774,7.6a4.281,4.281,0,0,1-1.131-.147,1.494,1.494,0,0,1-1.147-1.079l-.006-.028a19.43,19.43,0,0,1-.271-3.288c-.03-1.43-.012-3,.054-4.656s.171-3.2.313-4.562a14.088,14.088,0,0,1,.551-3.034l.017-.048.024-.045a1.518,1.518,0,0,1,1.27-.639c.088-.007.179-.011.272-.013q-.07-.06-.136-.127a2.357,2.357,0,0,1-.709-1.724,2.357,2.357,0,0,1,.709-1.724,2.357,2.357,0,0,1,1.724-.709,2.357,2.357,0,0,1,1.724.709,2.357,2.357,0,0,1,.709,1.724,2.357,2.357,0,0,1-.709,1.724,2.39,2.39,0,0,1-.816.543l.1.04c.847.359.946.919.929,1.221l0,.036c-.117,1.088-.254,2.534-.406,4.3S-87-.33-87.1,1.525-87.249,5-87.225,6.371v.038l0,.037c-.039.434-.365.753-.968.946a4.765,4.765,0,0,1-1.309.2C-89.6,7.6-89.686,7.6-89.774,7.6ZM-90.7,6.039a.433.433,0,0,0,.162.07,3.013,3.013,0,0,0,.964.091h.02a3.408,3.408,0,0,0,.929-.135c-.013-1.332.031-2.884.129-4.619.106-1.869.238-3.718.391-5.494.144-1.666.274-3.052.387-4.123l-.062-.028a4.442,4.442,0,0,0-1.07-.28A5.238,5.238,0,0,0-90-8.535a1.7,1.7,0,0,0-.171.021,15.23,15.23,0,0,0-.41,2.5c-.139,1.337-.243,2.841-.307,4.472s-.082,3.17-.053,4.572A18.784,18.784,0,0,0-90.7,6.039Zm2.458-18.868a.983.983,0,0,0-.738.3.982.982,0,0,0-.3.738.982.982,0,0,0,.3.738.982.982,0,0,0,.738.3.982.982,0,0,0,.738-.3.982.982,0,0,0,.3-.738.982.982,0,0,0-.3-.738A.982.982,0,0,0-88.241-12.829ZM-107.263,7.6a3.728,3.728,0,0,1-1.216-.194,1.655,1.655,0,0,1-1.116-1.218l-.01-.055a33.5,33.5,0,0,1-.247-4.1c-.03-1.809-.015-3.786.044-5.876s.161-4.027.3-5.75a20,20,0,0,1,.559-3.768l.01-.032.013-.03a1.419,1.419,0,0,1,1.329-.783,5.461,5.461,0,0,1,1.554.109,4.56,4.56,0,0,1,1.453.539l.013.008c.082.052.153.1.215.148l.34-.147.007,0a6.62,6.62,0,0,1,2.514-.564,4.469,4.469,0,0,1,.665.049,4.952,4.952,0,0,1,2.5,1.122l.01.008a7.952,7.952,0,0,1,2.175,3.2,13.343,13.343,0,0,1,.824,4.065,18.13,18.13,0,0,1-.3,4.329,16.781,16.781,0,0,1-1.285,4.01,10.146,10.146,0,0,1-2.169,3.086,6.279,6.279,0,0,1-2.436,1.46,5.686,5.686,0,0,1-1.753.267,7.374,7.374,0,0,1-1.34-.129c-.252-.044-.49-.077-.707-.1-.036,0-.069-.005-.1-.005a.362.362,0,0,0-.092.009l0,0a3.857,3.857,0,0,1-1.507.334C-107.1,7.6-107.183,7.6-107.263,7.6Zm-.968-1.707c.025.092.068.146.207.194a2.452,2.452,0,0,0,.931.114h.005a2.576,2.576,0,0,0,.967-.2,1.717,1.717,0,0,1,.941-.138c.252.025.525.063.812.113h.008a5.98,5.98,0,0,0,1.088.106,4.3,4.3,0,0,0,1.324-.2,4.9,4.9,0,0,0,1.9-1.141l.006-.006a8.764,8.764,0,0,0,1.866-2.668A15.387,15.387,0,0,0-97-1.6a16.733,16.733,0,0,0,.281-4,11.953,11.953,0,0,0-.735-3.64,6.575,6.575,0,0,0-1.788-2.642,3.53,3.53,0,0,0-1.8-.8,4.655,4.655,0,0,0-2.432.422c-.337.145-.492.214-.562.248l-.04.027a.739.739,0,0,1-.411.126.719.719,0,0,1-.425-.138l-.218-.109-.055-.165c-.023-.018-.065-.048-.133-.092a3.2,3.2,0,0,0-1-.361,4.083,4.083,0,0,0-1.156-.086,1.284,1.284,0,0,0-.183.027,21.427,21.427,0,0,0-.457,3.312c-.14,1.7-.241,3.607-.3,5.675s-.073,4.026-.044,5.814A33.277,33.277,0,0,0-108.231,5.893Zm-9.984,1.332a6.009,6.009,0,0,1-1.1-.1,5.78,5.78,0,0,1-2.757-1.364l-.014-.013a7,7,0,0,1-1.863-2.994,13.615,13.615,0,0,1-.655-3.883,18.354,18.354,0,0,1,.359-4.189,16.385,16.385,0,0,1,1.3-3.9l0-.008a8.8,8.8,0,0,1,2.146-2.8,6.44,6.44,0,0,1,2.84-1.453,4.71,4.71,0,0,1,.974-.1,4.574,4.574,0,0,1,2.059.5,5.775,5.775,0,0,1,2.432,2.622l0,.006a10.369,10.369,0,0,1,.868,2.641,19.177,19.177,0,0,1,.35,3.263,22.767,22.767,0,0,1-.183,3.509,15.9,15.9,0,0,1-.806,3.372,9.4,9.4,0,0,1-1.58,2.82,5.727,5.727,0,0,1-2.508,1.77l-.013,0A5.851,5.851,0,0,1-118.216,7.225Zm-2.933-2.512a4.343,4.343,0,0,0,2.089,1.038,4.611,4.611,0,0,0,.844.08,4.457,4.457,0,0,0,1.4-.23,4.293,4.293,0,0,0,1.9-1.345,8.019,8.019,0,0,0,1.342-2.4,14.5,14.5,0,0,0,.735-3.076,21.369,21.369,0,0,0,.172-3.293,17.784,17.784,0,0,0-.323-3.025,9,9,0,0,0-.742-2.28,4.438,4.438,0,0,0-1.818-2.016,3.149,3.149,0,0,0-1.436-.352,3.313,3.313,0,0,0-.685.074,5.066,5.066,0,0,0-2.225,1.151,7.419,7.419,0,0,0-1.8,2.354,14.994,14.994,0,0,0-1.182,3.567,16.959,16.959,0,0,0-.332,3.87,12.226,12.226,0,0,0,.585,3.485A5.637,5.637,0,0,0-121.149,4.713Zm2.812-.821h-.045l-.044-.006c-.443-.057-1.05-.346-1.434-1.4a9.308,9.308,0,0,1-.465-2.406,21.692,21.692,0,0,1-.019-2.956,20.163,20.163,0,0,1,.386-2.964,9.137,9.137,0,0,1,.82-2.408,2.128,2.128,0,0,1,1.664-1.3l.034,0h.045c.382,0,1.073.175,1.411,1.345a9.728,9.728,0,0,1,.311,2.416,25.983,25.983,0,0,1-.109,3.013,27.516,27.516,0,0,1-.436,3.008,12.912,12.912,0,0,1-.687,2.372C-117.267,3.46-117.748,3.892-118.337,3.892Zm.887-12.022a1.287,1.287,0,0,0-.458.539,7.774,7.774,0,0,0-.685,2.038,18.767,18.767,0,0,0-.358,2.758,20.3,20.3,0,0,0,.017,2.765,7.954,7.954,0,0,0,.385,2.04,1.607,1.607,0,0,0,.191.388,2.32,2.32,0,0,0,.168-.332,11.564,11.564,0,0,0,.606-2.109,26.114,26.114,0,0,0,.414-2.855,24.588,24.588,0,0,0,.1-2.85,8.529,8.529,0,0,0-.256-2.065A1.34,1.34,0,0,0-117.45-8.13Zm14.09,11.57a1.623,1.623,0,0,1-.912-.285,2.68,2.68,0,0,1-.961-1.645l-.005-.021a13.606,13.606,0,0,1-.21-3.831,20.988,20.988,0,0,1,.661-4.1l0-.009a8.275,8.275,0,0,1,.511-1.288,6.139,6.139,0,0,1,.88-1.358,2.048,2.048,0,0,1,1.447-.789l.069,0A1.954,1.954,0,0,1-100.306-8.8l.019.032a7.02,7.02,0,0,1,.781,2.951A15.709,15.709,0,0,1-99.672-2.2a12.106,12.106,0,0,1-1,3.346,5.753,5.753,0,0,1-.848,1.283,3.188,3.188,0,0,1-1.2.887A1.735,1.735,0,0,1-103.36,3.44Zm-.521-2.27c.175.671.362.811.382.825a.24.24,0,0,0,.139.051.355.355,0,0,0,.128-.03,1.825,1.825,0,0,0,.665-.512,4.353,4.353,0,0,0,.641-.97,10.718,10.718,0,0,0,.877-2.957,14.314,14.314,0,0,0,.153-3.293,5.714,5.714,0,0,0-.592-2.347c-.225-.346-.369-.422-.4-.435a.814.814,0,0,0-.453.308,4.747,4.747,0,0,0-.678,1.051,7.055,7.055,0,0,0-.426,1.064,19.6,19.6,0,0,0-.613,3.826A12.274,12.274,0,0,0-103.881,1.17Z" transform="translate(124.613 14.269)" fill="#fff" opacity="1"/>
</svg>
