<svg xmlns="http://www.w3.org/2000/svg" width="70.413" height="14.657" viewBox="0 0 70.413 14.657">
  <path id="Path_49640" data-name="Path 49640" d="M-78.538-1.122a9.253,9.253,0,0,1-.928-.025.466.466,0,0,1-.216-.1,1.21,1.21,0,0,1-.165-.457,21.6,21.6,0,0,1-.184-2.866q-.032-1.938.038-4.187t.216-4.1a14.169,14.169,0,0,1,.375-2.611q.064-.14.578-.2a10.57,10.57,0,0,1,1.264-.064q.75,0,1.519.044t1.347.108a3.8,3.8,0,0,1,.743.127.517.517,0,0,1,.178.369,2.966,2.966,0,0,1,.038.623q0,.165-.032.546a4.8,4.8,0,0,1-.114.724q-.083.343-.222.369-.5.013-1.131.013l-1.372.025h-.038a.493.493,0,0,0-.216.038q-.076.038-.089.216-.051.724-.076,1.277t-.051,1.48q-.013.318.1.407a.823.823,0,0,0,.483.076h.051q.33-.013.864-.019a5.475,5.475,0,0,1,.864.044q.241.051.337.388a2.55,2.55,0,0,1,.083.769,3.006,3.006,0,0,1-.108.756q-.1.324-.235.324-.343-.013-.883.006t-1.036.044l-.267.025a.557.557,0,0,0-.292.076.3.3,0,0,0-.14.254q-.025.572-.032.934T-77.293-5q0,.356-.013,2.694.064,1.169-.1,1.169h-.21Q-77.877-1.135-78.538-1.122ZM-70.3-2.279a4.512,4.512,0,0,1-1.2-1.938,9.227,9.227,0,0,1-.445-2.643A12.608,12.608,0,0,1-71.7-9.751a11.2,11.2,0,0,1,.89-2.681A5.794,5.794,0,0,1-69.4-14.281a4.108,4.108,0,0,1,1.817-.934,2.749,2.749,0,0,1,1.849.241,3.646,3.646,0,0,1,1.525,1.665,6.914,6.914,0,0,1,.578,1.766,13.194,13.194,0,0,1,.241,2.256,15.757,15.757,0,0,1-.127,2.44,10.856,10.856,0,0,1-.553,2.313A6.221,6.221,0,0,1-65.114-2.66,3.6,3.6,0,0,1-66.7-1.542a3.679,3.679,0,0,1-1.868.127A3.637,3.637,0,0,1-70.3-2.279Zm3.012-10.1q-.457.038-.794.667a6.037,6.037,0,0,0-.54,1.595,13.9,13.9,0,0,0-.267,2.052,14.991,14.991,0,0,0,.013,2.052,6.161,6.161,0,0,0,.3,1.595q.229.629.623.68.3,0,.565-.616a8.737,8.737,0,0,0,.464-1.608,19.149,19.149,0,0,0,.3-2.1,18.058,18.058,0,0,0,.076-2.1,6.566,6.566,0,0,0-.2-1.608Q-66.925-12.394-67.293-12.382Zm7.356,11.3a2.2,2.2,0,0,1-.845-.108.683.683,0,0,1-.477-.515,24.442,24.442,0,0,1-.178-2.872q-.038-1.944.032-4.194t.222-4.1a15.215,15.215,0,0,1,.369-2.6q.076-.191.413-.241a2.9,2.9,0,0,1,.788.006,4.04,4.04,0,0,1,.845.2q.1.038.178.064a1.177,1.177,0,0,0,.2.083.293.293,0,0,0,.114.013.739.739,0,0,0,.121-.032,3.227,3.227,0,0,1,.419-.089,4.141,4.141,0,0,1,2.033.127A3.937,3.937,0,0,1-53.863-14.1a4.868,4.868,0,0,1,.928,2,6.851,6.851,0,0,1,.1,2.357,7.421,7.421,0,0,1-.661,2.281,5.265,5.265,0,0,1-1.347,1.779,3.278,3.278,0,0,1-.572.381.59.59,0,0,0-.191.121q-.051.057.019.146a2.363,2.363,0,0,0,.273.267,9.825,9.825,0,0,1,1.665,1.716.587.587,0,0,1-.064.553,3.908,3.908,0,0,1-.457.693,2.382,2.382,0,0,1-.616.515q-.311.172-.413.121-1.614-1.195-3.075-2.389a.571.571,0,0,0-.362-.178q-.133.013-.133.343-.025,1.017-.013,1.843-.013.191-.349.324A2.366,2.366,0,0,1-59.937-1.084Zm2.847-11.5a1.179,1.179,0,0,0-.921.565,3.071,3.071,0,0,0-.445,1.252,4.927,4.927,0,0,0,0,1.455,2.656,2.656,0,0,0,.432,1.169.919.919,0,0,0,.858.413,1.2,1.2,0,0,0,.807-.591,3.78,3.78,0,0,0,.5-1.239,4.525,4.525,0,0,0,.1-1.423,2.33,2.33,0,0,0-.388-1.156A1.058,1.058,0,0,0-57.09-12.585Zm13.041,11.5a2.244,2.244,0,0,1-.851-.108.655.655,0,0,1-.47-.515,21.657,21.657,0,0,1-.184-2.872q-.032-1.944.038-4.194t.222-4.1a15.215,15.215,0,0,1,.369-2.6q.089-.2.508-.248a3.262,3.262,0,0,1,.934.051,3.007,3.007,0,0,1,.89.3q.375.2.362.483-.025.394-.064.864-.051.686-.114,1.512a2.538,2.538,0,0,0-.019.75q.044.064.261-.292.127-.216.343-.534.6-.864,1.029-1.563.33-.534.6-.915a3.292,3.292,0,0,1,.483-.572q.178-.127.585.032a3.37,3.37,0,0,1,.826.483,3.083,3.083,0,0,1,.661.674.517.517,0,0,1,.089.591q-.585.839-1.4,2.16-.915,1.525-2.1,3.24a.148.148,0,0,0-.025.038,3.178,3.178,0,0,0-.2.318.2.2,0,0,0-.013.222q.064.083.33.07a16.639,16.639,0,0,1,3.19.025q.216.064.311.47a3.252,3.252,0,0,1,.064.934,2.932,2.932,0,0,1-.191.921q-.159.394-.438.419-1.449.064-3.774.178h-.064l-.369.025a2.248,2.248,0,0,0-.356.051.288.288,0,0,0-.21.152.962.962,0,0,0-.07.432q-.051,1.474-.025,2.643-.013.191-.349.324A2.366,2.366,0,0,1-44.05-1.084Zm11.118-12.161a1.2,1.2,0,0,1-.883-.362,1.2,1.2,0,0,1-.362-.883,1.2,1.2,0,0,1,.362-.883,1.2,1.2,0,0,1,.883-.362,1.2,1.2,0,0,1,.883.362,1.2,1.2,0,0,1,.362.883,1.2,1.2,0,0,1-.362.883A1.2,1.2,0,0,1-32.932-13.246ZM-33.86-1.084a2.648,2.648,0,0,1-.851-.083.589.589,0,0,1-.47-.413,13.636,13.636,0,0,1-.184-2.268q-.032-1.531.038-3.31t.222-3.24a9.8,9.8,0,0,1,.369-2.059q.089-.165.508-.2a4.231,4.231,0,0,1,.934.044,3.663,3.663,0,0,1,.89.235q.375.159.362.388-.127,1.182-.292,3.094t-.28,3.927q-.114,2.014-.089,3.514-.013.14-.349.248A2.919,2.919,0,0,1-33.86-1.084Zm5.12,0a2.244,2.244,0,0,1-.858-.108.683.683,0,0,1-.477-.515,23.838,23.838,0,0,1-.172-2.872q-.032-1.944.032-4.194t.216-4.1a14.094,14.094,0,0,1,.381-2.6q.089-.216.534-.254a3.406,3.406,0,0,1,.972.07,2.766,2.766,0,0,1,.883.324,1.246,1.246,0,0,1,.2.152.308.308,0,0,1,.076.1.148.148,0,0,1,.038.025q.013.013.032,0l.057-.038q.1-.051.457-.2a3.8,3.8,0,0,1,2.014-.337,3.046,3.046,0,0,1,1.544.693,5.187,5.187,0,0,1,1.423,2.1,9.032,9.032,0,0,1,.559,2.764,12.448,12.448,0,0,1-.21,2.986,11.486,11.486,0,0,1-.883,2.758,6.751,6.751,0,0,1-1.449,2.065,3.99,3.99,0,0,1-1.557.934A3.984,3.984,0,0,1-26.9-1.25q-.292-.051-.546-.076a.746.746,0,0,0-.407.051A2.311,2.311,0,0,1-28.74-1.084Zm2.109-9.442a14.49,14.49,0,0,0-.457,2.847,9.229,9.229,0,0,0,.14,2.605,1.5,1.5,0,0,0,.483.89.668.668,0,0,0,.654.064,1.788,1.788,0,0,0,.667-.5,3.606,3.606,0,0,0,.534-.807,8.15,8.15,0,0,0,.674-2.262,10.72,10.72,0,0,0,.114-2.478,4.532,4.532,0,0,0-.5-1.906q-.369-.572-.731-.553a.989.989,0,0,0-.686.394,3.886,3.886,0,0,0-.559.864A5.509,5.509,0,0,0-26.63-10.526ZM-17.3-7.3a3.01,3.01,0,0,1-1.1-1.144,3.491,3.491,0,0,1-.362-1.932,5.073,5.073,0,0,1,.674-2.173,6.342,6.342,0,0,1,1.461-1.735A6.277,6.277,0,0,1-14.5-15.444a5.041,5.041,0,0,1,1.722-.229,3.835,3.835,0,0,1,1.576.4,2.871,2.871,0,0,1,1.15,1.042,3.032,3.032,0,0,1,.419,1.7,4.5,4.5,0,0,1-.051.515.686.686,0,0,1-.114.324,1.128,1.128,0,0,1-.731.267,4.43,4.43,0,0,1-1-.038,2.208,2.208,0,0,1-.743-.216.375.375,0,0,1-.159-.114.307.307,0,0,1-.044-.178q.025-.61-.235-.731a1.345,1.345,0,0,0-.9.1,3.239,3.239,0,0,0-1.131.61,3.43,3.43,0,0,0-.775.915,2.065,2.065,0,0,0-.33.9.519.519,0,0,0,.3.477,3.379,3.379,0,0,0,.87.292,9.4,9.4,0,0,1,1.519.515,4.035,4.035,0,0,1,1.2.794,2.465,2.465,0,0,1,.674,1.195A3.546,3.546,0,0,1-11.357-5.2,6.542,6.542,0,0,1-12-3.823a14.393,14.393,0,0,1-1.08,1.608A4.2,4.2,0,0,1-14.14-1.173a.8.8,0,0,1-.718.019,2.284,2.284,0,0,1-.718-.477,2.857,2.857,0,0,1-.508-.629q-.178-.311-.089-.464a.083.083,0,0,0,.038-.038q.445-.559.87-1.156a13.417,13.417,0,0,0,.782-1.233,1.625,1.625,0,0,0,.235-.623.337.337,0,0,0-.21-.318,3.636,3.636,0,0,0-.661-.241,1.872,1.872,0,0,1-.2-.064A8.222,8.222,0,0,1-17.3-7.3Z" transform="translate(80.041 15.736)" fill="#fff" opacity="1"/>
</svg>
