<svg xmlns="http://www.w3.org/2000/svg" width="4967" height="4967" viewBox="0 0 4967 4967">
  <g id="Group_18526" data-name="Group 18526" transform="translate(1915 2038)" opacity="0.45">
    <g id="Ellipse_1512" data-name="Ellipse 1512" transform="translate(530 407)" fill="none" stroke="#d8e1ff" stroke-width="1">
      <circle cx="10" cy="10" r="10" stroke="none"/>
      <circle cx="10" cy="10" r="9.5" fill="none"/>
    </g>
    <g id="Ellipse_1513" data-name="Ellipse 1513" transform="translate(524 401)" fill="none" stroke="#d8e1ff" stroke-width="1">
      <circle cx="16" cy="16" r="16" stroke="none"/>
      <circle cx="16" cy="16" r="15.5" fill="none"/>
    </g>
    <g id="Ellipse_1514" data-name="Ellipse 1514" transform="translate(517 394)" fill="none" stroke="#d8e1ff" stroke-width="1">
      <circle cx="23" cy="23" r="23" stroke="none"/>
      <circle cx="23" cy="23" r="22.5" fill="none"/>
    </g>
    <g id="Ellipse_1515" data-name="Ellipse 1515" transform="translate(508 385)" fill="none" stroke="#d8e1ff" stroke-width="1">
      <circle cx="32" cy="32" r="32" stroke="none"/>
      <circle cx="32" cy="32" r="31.5" fill="none"/>
    </g>
    <g id="Ellipse_1516" data-name="Ellipse 1516" transform="translate(496 373)" fill="none" stroke="#d8e1ff" stroke-width="1">
      <circle cx="44" cy="44" r="44" stroke="none"/>
      <circle cx="44" cy="44" r="43.5" fill="none"/>
    </g>
    <g id="Ellipse_1517" data-name="Ellipse 1517" transform="translate(480 357)" fill="none" stroke="#d8e1ff" stroke-width="1">
      <circle cx="60" cy="60" r="60" stroke="none"/>
      <circle cx="60" cy="60" r="59.5" fill="none"/>
    </g>
    <g id="Ellipse_1518" data-name="Ellipse 1518" transform="translate(455 332)" fill="none" stroke="#d8e1ff" stroke-width="1">
      <circle cx="85" cy="85" r="85" stroke="none"/>
      <circle cx="85" cy="85" r="84.5" fill="none"/>
    </g>
    <g id="Ellipse_1519" data-name="Ellipse 1519" transform="translate(420 297)" fill="none" stroke="#d8e1ff" stroke-width="1">
      <circle cx="120" cy="120" r="120" stroke="none"/>
      <circle cx="120" cy="120" r="119.5" fill="none"/>
    </g>
    <g id="Ellipse_1520" data-name="Ellipse 1520" transform="translate(407 284)" fill="none" stroke="#d8e1ff" stroke-width="1">
      <circle cx="133" cy="133" r="133" stroke="none"/>
      <circle cx="133" cy="133" r="132.5" fill="none"/>
    </g>
    <g id="Ellipse_1521" data-name="Ellipse 1521" transform="translate(400 277)" fill="none" stroke="#d8e1ff" stroke-width="1">
      <circle cx="140" cy="140" r="140" stroke="none"/>
      <circle cx="140" cy="140" r="139.5" fill="none"/>
    </g>
    <g id="Ellipse_1522" data-name="Ellipse 1522" transform="translate(396 273)" fill="none" stroke="#d8e1ff" stroke-width="1">
      <circle cx="144" cy="144" r="144" stroke="none"/>
      <circle cx="144" cy="144" r="143.5" fill="none"/>
    </g>
    <g id="Ellipse_1523" data-name="Ellipse 1523" transform="translate(388 265)" fill="none" stroke="#d8e1ff" stroke-width="1">
      <circle cx="152" cy="152" r="152" stroke="none"/>
      <circle cx="152" cy="152" r="151.5" fill="none"/>
    </g>
    <g id="Ellipse_1524" data-name="Ellipse 1524" transform="translate(382 259)" fill="none" stroke="#d8e1ff" stroke-width="1">
      <circle cx="158" cy="158" r="158" stroke="none"/>
      <circle cx="158" cy="158" r="157.5" fill="none"/>
    </g>
    <g id="Ellipse_1525" data-name="Ellipse 1525" transform="translate(375 252)" fill="none" stroke="#d8e1ff" stroke-width="1">
      <circle cx="165" cy="165" r="165" stroke="none"/>
      <circle cx="165" cy="165" r="164.5" fill="none"/>
    </g>
    <g id="Ellipse_1526" data-name="Ellipse 1526" transform="translate(369 246)" fill="none" stroke="#d8e1ff" stroke-width="1">
      <circle cx="171" cy="171" r="171" stroke="none"/>
      <circle cx="171" cy="171" r="170.5" fill="none"/>
    </g>
    <g id="Ellipse_1527" data-name="Ellipse 1527" transform="translate(356 233)" fill="none" stroke="#d8e1ff" stroke-width="0.5">
      <circle cx="184" cy="184" r="184" stroke="none"/>
      <circle cx="184" cy="184" r="183.75" fill="none"/>
    </g>
    <g id="Ellipse_1528" data-name="Ellipse 1528" transform="translate(333 210)" fill="none" stroke="#d8e1ff" stroke-width="0.5">
      <circle cx="207" cy="207" r="207" stroke="none"/>
      <circle cx="207" cy="207" r="206.75" fill="none"/>
    </g>
    <g id="Ellipse_1529" data-name="Ellipse 1529" transform="translate(312 189)" fill="none" stroke="#d8e1ff" stroke-width="0.5">
      <circle cx="228" cy="228" r="228" stroke="none"/>
      <circle cx="228" cy="228" r="227.75" fill="none"/>
    </g>
    <g id="Ellipse_1530" data-name="Ellipse 1530" transform="translate(280 157)" fill="none" stroke="#d8e1ff" stroke-width="0.5">
      <circle cx="260" cy="260" r="260" stroke="none"/>
      <circle cx="260" cy="260" r="259.75" fill="none"/>
    </g>
    <g id="Ellipse_1531" data-name="Ellipse 1531" transform="translate(242 119)" fill="none" stroke="#d8e1ff" stroke-width="0.5">
      <circle cx="298" cy="298" r="298" stroke="none"/>
      <circle cx="298" cy="298" r="297.75" fill="none"/>
    </g>
    <g id="Ellipse_1532" data-name="Ellipse 1532" transform="translate(200 77)" fill="none" stroke="#d8e1ff" stroke-width="0.5">
      <circle cx="340" cy="340" r="340" stroke="none"/>
      <circle cx="340" cy="340" r="339.75" fill="none"/>
    </g>
    <g id="Ellipse_1533" data-name="Ellipse 1533" transform="translate(184 61)" fill="none" stroke="#d8e1ff" stroke-width="0.5">
      <circle cx="356" cy="356" r="356" stroke="none"/>
      <circle cx="356" cy="356" r="355.75" fill="none"/>
    </g>
    <g id="Ellipse_1534" data-name="Ellipse 1534" transform="translate(174 51)" fill="none" stroke="#d8e1ff" stroke-width="0.5">
      <circle cx="366" cy="366" r="366" stroke="none"/>
      <circle cx="366" cy="366" r="365.75" fill="none"/>
    </g>
    <g id="Ellipse_1535" data-name="Ellipse 1535" transform="translate(169 46)" fill="none" stroke="#d8e1ff" stroke-width="0.5">
      <circle cx="371" cy="371" r="371" stroke="none"/>
      <circle cx="371" cy="371" r="370.75" fill="none"/>
    </g>
    <g id="Ellipse_1536" data-name="Ellipse 1536" transform="translate(165 42)" fill="none" stroke="#d8e1ff" stroke-width="0.5">
      <circle cx="375" cy="375" r="375" stroke="none"/>
      <circle cx="375" cy="375" r="374.75" fill="none"/>
    </g>
    <g id="Ellipse_1537" data-name="Ellipse 1537" transform="translate(158 35)" fill="none" stroke="#d8e1ff" stroke-width="0.5">
      <circle cx="382" cy="382" r="382" stroke="none"/>
      <circle cx="382" cy="382" r="381.75" fill="none"/>
    </g>
    <g id="Ellipse_1538" data-name="Ellipse 1538" transform="translate(151 28)" fill="none" stroke="#d8e1ff" stroke-width="0.5">
      <circle cx="389" cy="389" r="389" stroke="none"/>
      <circle cx="389" cy="389" r="388.75" fill="none"/>
    </g>
    <g id="Ellipse_1539" data-name="Ellipse 1539" transform="translate(138 15)" fill="none" stroke="#d8e1ff" stroke-width="0.5">
      <circle cx="402" cy="402" r="402" stroke="none"/>
      <circle cx="402" cy="402" r="401.75" fill="none"/>
    </g>
    <g id="Ellipse_1540" data-name="Ellipse 1540" transform="translate(116 -7)" fill="none" stroke="#d8e1ff" stroke-width="0.5">
      <circle cx="424" cy="424" r="424" stroke="none"/>
      <circle cx="424" cy="424" r="423.75" fill="none"/>
    </g>
    <g id="Ellipse_1541" data-name="Ellipse 1541" transform="translate(79 -44)" fill="none" stroke="#d8e1ff" stroke-width="0.5">
      <circle cx="461" cy="461" r="461" stroke="none"/>
      <circle cx="461" cy="461" r="460.75" fill="none"/>
    </g>
    <g id="Ellipse_1542" data-name="Ellipse 1542" transform="translate(33 -90)" fill="none" stroke="#d8e1ff" stroke-width="0.5">
      <circle cx="507" cy="507" r="507" stroke="none"/>
      <circle cx="507" cy="507" r="506.75" fill="none"/>
    </g>
    <g id="Ellipse_1543" data-name="Ellipse 1543" transform="translate(-24 -147)" fill="none" stroke="#d8e1ff" stroke-width="0.5">
      <circle cx="564" cy="564" r="564" stroke="none"/>
      <circle cx="564" cy="564" r="563.75" fill="none"/>
    </g>
    <g id="Ellipse_1544" data-name="Ellipse 1544" transform="translate(-79 -202)" fill="none" stroke="#d8e1ff" stroke-width="0.5">
      <circle cx="619" cy="619" r="619" stroke="none"/>
      <circle cx="619" cy="619" r="618.75" fill="none"/>
    </g>
    <g id="Ellipse_1545" data-name="Ellipse 1545" transform="translate(-119 -242)" fill="none" stroke="#d8e1ff" stroke-width="0.5">
      <circle cx="659" cy="659" r="659" stroke="none"/>
      <circle cx="659" cy="659" r="658.75" fill="none"/>
    </g>
    <g id="Ellipse_1546" data-name="Ellipse 1546" transform="translate(-148 -271)" fill="none" stroke="#d8e1ff" stroke-width="0.5">
      <circle cx="688" cy="688" r="688" stroke="none"/>
      <circle cx="688" cy="688" r="687.75" fill="none"/>
    </g>
    <g id="Ellipse_1547" data-name="Ellipse 1547" transform="translate(-173 -296)" fill="none" stroke="#d8e1ff" stroke-width="0.5">
      <circle cx="713" cy="713" r="713" stroke="none"/>
      <circle cx="713" cy="713" r="712.75" fill="none"/>
    </g>
    <g id="Ellipse_1548" data-name="Ellipse 1548" transform="translate(-188 -311)" fill="none" stroke="#d8e1ff" stroke-width="0.5">
      <circle cx="728" cy="728" r="728" stroke="none"/>
      <circle cx="728" cy="728" r="727.75" fill="none"/>
    </g>
    <g id="Ellipse_1549" data-name="Ellipse 1549" transform="translate(-197 -320)" fill="none" stroke="#d8e1ff" stroke-width="0.5">
      <circle cx="737" cy="737" r="737" stroke="none"/>
      <circle cx="737" cy="737" r="736.75" fill="none"/>
    </g>
    <g id="Ellipse_1550" data-name="Ellipse 1550" transform="translate(-206 -329)" fill="none" stroke="#d8e1ff" stroke-width="0.5">
      <circle cx="746" cy="746" r="746" stroke="none"/>
      <circle cx="746" cy="746" r="745.75" fill="none"/>
    </g>
    <g id="Ellipse_1551" data-name="Ellipse 1551" transform="translate(-217 -340)" fill="none" stroke="#d8e1ff" stroke-width="0.5">
      <circle cx="757" cy="757" r="757" stroke="none"/>
      <circle cx="757" cy="757" r="756.75" fill="none"/>
    </g>
    <g id="Ellipse_1552" data-name="Ellipse 1552" transform="translate(-227 -350)" fill="none" stroke="#d8e1ff" stroke-width="0.5">
      <circle cx="767" cy="767" r="767" stroke="none"/>
      <circle cx="767" cy="767" r="766.75" fill="none"/>
    </g>
    <g id="Ellipse_1553" data-name="Ellipse 1553" transform="translate(-237 -360)" fill="none" stroke="#d8e1ff" stroke-width="0.5">
      <circle cx="777" cy="777" r="777" stroke="none"/>
      <circle cx="777" cy="777" r="776.75" fill="none"/>
    </g>
    <g id="Ellipse_1554" data-name="Ellipse 1554" transform="translate(-243 -366)" fill="none" stroke="#d8e1ff" stroke-width="0.5">
      <circle cx="783" cy="783" r="783" stroke="none"/>
      <circle cx="783" cy="783" r="782.75" fill="none"/>
    </g>
    <g id="Ellipse_1555" data-name="Ellipse 1555" transform="translate(-247 -370)" fill="none" stroke="#d8e1ff" stroke-width="0.5">
      <circle cx="787" cy="787" r="787" stroke="none"/>
      <circle cx="787" cy="787" r="786.75" fill="none"/>
    </g>
    <g id="Ellipse_1556" data-name="Ellipse 1556" transform="translate(-256 -379)" fill="none" stroke="#d8e1ff" stroke-width="0.5">
      <circle cx="796" cy="796" r="796" stroke="none"/>
      <circle cx="796" cy="796" r="795.75" fill="none"/>
    </g>
    <g id="Ellipse_1557" data-name="Ellipse 1557" transform="translate(-266 -389)" fill="none" stroke="#d8e1ff" stroke-width="0.5">
      <circle cx="806" cy="806" r="806" stroke="none"/>
      <circle cx="806" cy="806" r="805.75" fill="none"/>
    </g>
    <g id="Ellipse_1558" data-name="Ellipse 1558" transform="translate(-276 -399)" fill="none" stroke="#d8e1ff" stroke-width="0.5">
      <circle cx="816" cy="816" r="816" stroke="none"/>
      <circle cx="816" cy="816" r="815.75" fill="none"/>
    </g>
    <g id="Ellipse_1559" data-name="Ellipse 1559" transform="translate(-296 -419)" fill="none" stroke="#d8e1ff" stroke-width="0.5">
      <circle cx="836" cy="836" r="836" stroke="none"/>
      <circle cx="836" cy="836" r="835.75" fill="none"/>
    </g>
    <g id="Ellipse_1560" data-name="Ellipse 1560" transform="translate(-315 -438)" fill="none" stroke="#d8e1ff" stroke-width="0.5">
      <circle cx="855" cy="855" r="855" stroke="none"/>
      <circle cx="855" cy="855" r="854.75" fill="none"/>
    </g>
    <g id="Ellipse_1561" data-name="Ellipse 1561" transform="translate(-338 -461)" fill="none" stroke="#d8e1ff" stroke-width="0.5">
      <circle cx="878" cy="878" r="878" stroke="none"/>
      <circle cx="878" cy="878" r="877.75" fill="none"/>
    </g>
    <g id="Ellipse_1562" data-name="Ellipse 1562" transform="translate(-374 -497)" fill="none" stroke="#d8e1ff" stroke-width="0.5">
      <circle cx="914" cy="914" r="914" stroke="none"/>
      <circle cx="914" cy="914" r="913.75" fill="none"/>
    </g>
    <g id="Ellipse_1563" data-name="Ellipse 1563" transform="translate(-394 -517)" fill="none" stroke="#d8e1ff" stroke-width="0.5">
      <circle cx="943.5" cy="943.5" r="943.5" stroke="none"/>
      <circle cx="943.5" cy="943.5" r="943.25" fill="none"/>
    </g>
    <g id="Ellipse_1564" data-name="Ellipse 1564" transform="translate(-443 -566)" fill="none" stroke="#d8e1ff" stroke-width="0.5">
      <circle cx="992.5" cy="992.5" r="992.5" stroke="none"/>
      <circle cx="992.5" cy="992.5" r="992.25" fill="none"/>
    </g>
    <g id="Ellipse_1565" data-name="Ellipse 1565" transform="translate(-541 -664)" fill="none" stroke="#d8e1ff" stroke-width="0.5">
      <circle cx="1073.5" cy="1073.5" r="1073.5" stroke="none"/>
      <circle cx="1073.5" cy="1073.5" r="1073.25" fill="none"/>
    </g>
    <g id="Ellipse_1566" data-name="Ellipse 1566" transform="translate(-589 -712)" fill="none" stroke="#d8e1ff" stroke-width="0.5">
      <circle cx="1121.5" cy="1121.5" r="1121.5" stroke="none"/>
      <circle cx="1121.5" cy="1121.5" r="1121.25" fill="none"/>
    </g>
    <g id="Ellipse_1567" data-name="Ellipse 1567" transform="translate(-622 -745)" fill="none" stroke="#d8e1ff" stroke-width="0.5">
      <circle cx="1154.5" cy="1154.5" r="1154.5" stroke="none"/>
      <circle cx="1154.5" cy="1154.5" r="1154.25" fill="none"/>
    </g>
    <g id="Ellipse_1568" data-name="Ellipse 1568" transform="translate(-650 -773)" fill="none" stroke="#d8e1ff" stroke-width="0.5">
      <circle cx="1182.5" cy="1182.5" r="1182.5" stroke="none"/>
      <circle cx="1182.5" cy="1182.5" r="1182.25" fill="none"/>
    </g>
    <g id="Ellipse_1569" data-name="Ellipse 1569" transform="translate(-678 -801)" fill="none" stroke="#d8e1ff" stroke-width="0.5">
      <circle cx="1210.5" cy="1210.5" r="1210.5" stroke="none"/>
      <circle cx="1210.5" cy="1210.5" r="1210.25" fill="none"/>
    </g>
    <g id="Ellipse_1570" data-name="Ellipse 1570" transform="translate(-700 -823)" fill="none" stroke="#d8e1ff" stroke-width="0.5">
      <circle cx="1232.5" cy="1232.5" r="1232.5" stroke="none"/>
      <circle cx="1232.5" cy="1232.5" r="1232.25" fill="none"/>
    </g>
    <g id="Ellipse_1571" data-name="Ellipse 1571" transform="translate(-713 -836)" fill="none" stroke="#d8e1ff" stroke-width="0.5">
      <circle cx="1245.5" cy="1245.5" r="1245.5" stroke="none"/>
      <circle cx="1245.5" cy="1245.5" r="1245.25" fill="none"/>
    </g>
    <g id="Ellipse_1572" data-name="Ellipse 1572" transform="translate(-725 -848)" fill="none" stroke="#d8e1ff" stroke-width="0.5">
      <circle cx="1257.5" cy="1257.5" r="1257.5" stroke="none"/>
      <circle cx="1257.5" cy="1257.5" r="1257.25" fill="none"/>
    </g>
    <g id="Ellipse_1573" data-name="Ellipse 1573" transform="translate(-734 -857)" fill="none" stroke="#d8e1ff" stroke-width="0.5">
      <circle cx="1266.5" cy="1266.5" r="1266.5" stroke="none"/>
      <circle cx="1266.5" cy="1266.5" r="1266.25" fill="none"/>
    </g>
    <g id="Ellipse_1574" data-name="Ellipse 1574" transform="translate(-739 -862)" fill="none" stroke="#d8e1ff" stroke-width="0.5">
      <circle cx="1271.5" cy="1271.5" r="1271.5" stroke="none"/>
      <circle cx="1271.5" cy="1271.5" r="1271.25" fill="none"/>
    </g>
    <g id="Ellipse_1575" data-name="Ellipse 1575" transform="translate(-746 -869)" fill="none" stroke="#d8e1ff" stroke-width="0.5">
      <circle cx="1278.5" cy="1278.5" r="1278.5" stroke="none"/>
      <circle cx="1278.5" cy="1278.5" r="1278.25" fill="none"/>
    </g>
    <g id="Ellipse_1576" data-name="Ellipse 1576" transform="translate(-753 -876)" fill="none" stroke="#d8e1ff" stroke-width="0.5">
      <circle cx="1285.5" cy="1285.5" r="1285.5" stroke="none"/>
      <circle cx="1285.5" cy="1285.5" r="1285.25" fill="none"/>
    </g>
    <g id="Ellipse_1577" data-name="Ellipse 1577" transform="translate(-762 -885)" fill="none" stroke="#d8e1ff" stroke-width="0.5">
      <circle cx="1294.5" cy="1294.5" r="1294.5" stroke="none"/>
      <circle cx="1294.5" cy="1294.5" r="1294.25" fill="none"/>
    </g>
    <g id="Ellipse_1578" data-name="Ellipse 1578" transform="translate(-773 -896)" fill="none" stroke="#d8e1ff" stroke-width="0.5">
      <circle cx="1305.5" cy="1305.5" r="1305.5" stroke="none"/>
      <circle cx="1305.5" cy="1305.5" r="1305.25" fill="none"/>
    </g>
    <g id="Ellipse_1579" data-name="Ellipse 1579" transform="translate(-796 -919)" fill="none" stroke="#d8e1ff" stroke-width="0.5">
      <circle cx="1328.5" cy="1328.5" r="1328.5" stroke="none"/>
      <circle cx="1328.5" cy="1328.5" r="1328.25" fill="none"/>
    </g>
    <g id="Ellipse_1580" data-name="Ellipse 1580" transform="translate(-821 -944)" fill="none" stroke="#d8e1ff" stroke-width="0.5">
      <circle cx="1353.5" cy="1353.5" r="1353.5" stroke="none"/>
      <circle cx="1353.5" cy="1353.5" r="1353.25" fill="none"/>
    </g>
    <g id="Ellipse_1581" data-name="Ellipse 1581" transform="translate(-887 -1010)" fill="none" stroke="#d8e1ff" stroke-width="0.5">
      <circle cx="1409.5" cy="1409.5" r="1409.5" stroke="none"/>
      <circle cx="1409.5" cy="1409.5" r="1409.25" fill="none"/>
    </g>
    <g id="Ellipse_1582" data-name="Ellipse 1582" transform="translate(-951 -1074)" fill="none" stroke="#d8e1ff" stroke-width="0.5">
      <circle cx="1473.5" cy="1473.5" r="1473.5" stroke="none"/>
      <circle cx="1473.5" cy="1473.5" r="1473.25" fill="none"/>
    </g>
    <g id="Ellipse_1583" data-name="Ellipse 1583" transform="translate(-1029 -1152)" fill="none" stroke="#d8e1ff" stroke-width="0.5">
      <circle cx="1551.5" cy="1551.5" r="1551.5" stroke="none"/>
      <circle cx="1551.5" cy="1551.5" r="1551.25" fill="none"/>
    </g>
    <g id="Ellipse_1584" data-name="Ellipse 1584" transform="translate(-1138 -1261)" fill="none" stroke="#d8e1ff" stroke-width="0.5">
      <circle cx="1660.5" cy="1660.5" r="1660.5" stroke="none"/>
      <circle cx="1660.5" cy="1660.5" r="1660.25" fill="none"/>
    </g>
    <g id="Ellipse_1585" data-name="Ellipse 1585" transform="translate(-1213 -1336)" fill="none" stroke="#d8e1ff" stroke-width="0.5">
      <circle cx="1754.5" cy="1754.5" r="1754.5" stroke="none"/>
      <circle cx="1754.5" cy="1754.5" r="1754.25" fill="none"/>
    </g>
    <g id="Ellipse_1586" data-name="Ellipse 1586" transform="translate(-1356 -1479)" fill="none" stroke="#d8e1ff" stroke-width="0.5">
      <circle cx="1924.5" cy="1924.5" r="1924.5" stroke="none"/>
      <circle cx="1924.5" cy="1924.5" r="1924.25" fill="none"/>
    </g>
    <g id="Ellipse_1587" data-name="Ellipse 1587" transform="translate(-1915 -2038)" fill="none" stroke="#d8e1ff" stroke-width="0.5">
      <circle cx="2483.5" cy="2483.5" r="2483.5" stroke="none"/>
      <circle cx="2483.5" cy="2483.5" r="2483.25" fill="none"/>
    </g>
  </g>
</svg>
