<svg xmlns="http://www.w3.org/2000/svg" width="343" height="778.719" viewBox="0 0 343 778.719">
  <g id="Group_18631" data-name="Group 18631" transform="translate(343) rotate(90)">
    <path id="Group_000000004" data-name="Group 000000004" d="M0,0H193.4a0,0,0,0,1,0,0V140.647a30,30,0,0,1-30,30H0a0,0,0,0,1,0,0V0A0,0,0,0,1,0,0Z" transform="translate(585.319 172.353)" fill="#fcfcfc"/>
    <path id="Group_000000005" data-name="Group 000000005" d="M30,0H193.4a0,0,0,0,1,0,0V170.647a0,0,0,0,1,0,0H0a0,0,0,0,1,0,0V30A30,30,0,0,1,30,0Z" transform="translate(0 0)" fill="#fcfcfc"/>
    <g id="Group_00000001" data-name="Group 00000001" transform="translate(0 126.847)">
      <path id="Path_49672" data-name="Path 49672" d="M45.506,31.715c0-7.048-6.274-8.335-9.048-8.335s-5.747,2.675-6.639,3.863-5.452,6.443-12.878,6.142S0,28.373,0,16.346,10.6,0,16.941,0,28.136,4.062,29.819,5.845s3.667,4.062,6.639,4.062,8.982-2.178,9.048-8.123" transform="translate(179.434 0) rotate(90)" fill="#fcfcfc" stroke="#d8e1ff" stroke-width="2"/>
      <path id="Rectangle_21381" data-name="Rectangle 21381" d="M0,0H193.4a0,0,0,0,1,0,0V170.647a0,0,0,0,1,0,0H30a30,30,0,0,1-30-30V0A0,0,0,0,1,0,0Z" transform="translate(0 45.506)" fill="#fcfcfc"/>
    </g>
    <g id="Group_000000002" data-name="Group 000000002" transform="translate(150.738 172.353)">
      <path id="Path_49669" data-name="Path 49669" d="M45.5,31.715c0-7.049-6.274-8.336-9.048-8.336s-5.746,2.676-6.639,3.863-5.452,6.443-12.879,6.141S0,28.371,0,16.344,10.6,0,16.939,0s11.2,4.061,12.879,5.844,3.667,4.063,6.639,4.063,8.982-2.18,9.048-8.125" transform="translate(0 25.432)" fill="#fcfcfc" stroke="#d8e1ff" stroke-width="2"/>
      <rect id="Rectangle_21381-2" data-name="Rectangle 21381" width="193.4" height="170.647" transform="translate(44.368)" fill="#fcfcfc"/>
    </g>
    <rect id="Group_000000007" data-name="Group 000000007" width="193.4" height="170.647" transform="translate(390.213 0)" fill="#fcfcfc"/>
    <g id="Group_000000003" data-name="Group 000000003" transform="translate(344.707 126.847)">
      <path id="Path_49669-2" data-name="Path 49669" d="M45.506,31.715c0-7.048-6.274-8.335-9.048-8.335s-5.747,2.675-6.639,3.863-5.452,6.443-12.878,6.142S0,28.373,0,16.346,10.6,0,16.941,0,28.136,4.062,29.819,5.845s3.667,4.062,6.639,4.062,8.982-2.178,9.048-8.123" transform="translate(230.573) rotate(90)" fill="#fcfcfc" stroke="#d8e1ff" stroke-width="2"/>
      <path id="Path_49675" data-name="Path 49675" d="M45.506,31.715c0-7.048-6.274-8.335-9.048-8.335s-5.747,2.675-6.639,3.863-5.452,6.443-12.878,6.142S0,28.373,0,16.346,10.6,0,16.941,0,28.136,4.062,29.819,5.845s3.667,4.062,6.639,4.062,8.982-2.178,9.048-8.123" transform="translate(0 52.153)" fill="#fcfcfc" stroke="#d8e1ff" stroke-width="2"/>
      <path id="Path_49677" data-name="Path 49677" d="M45.506,31.715c0-7.048-6.274-8.335-9.048-8.335s-5.747,2.675-6.639,3.863-5.452,6.443-12.878,6.142S0,28.373,0,16.346,10.6,0,16.941,0,28.136,4.062,29.819,5.845s3.667,4.062,6.639,4.062,8.982-2.178,9.048-8.123" transform="translate(284.411 93.242) rotate(180)" fill="#fcfcfc" stroke="#d8e1ff" stroke-width="2"/>
      <rect id="Rectangle_21381-3" data-name="Rectangle 21381" width="193.4" height="170.647" transform="translate(45.506 45.506)" fill="#fcfcfc"/>
    </g>
    <g id="Group_18623" data-name="Group 18623" transform="translate(540.951 0)">
      <path id="Path_49669-3" data-name="Path 49669" d="M45.5,31.715c0-7.049-6.274-8.336-9.048-8.336s-5.746,2.676-6.639,3.863-5.452,6.443-12.879,6.141S0,28.371,0,16.344,10.6,0,16.939,0s11.2,4.061,12.879,5.844,3.667,4.063,6.639,4.063,8.982-2.18,9.048-8.125" transform="translate(0 25.606)" fill="#fcfcfc" stroke="#d8e1ff" stroke-width="2"/>
      <path id="Path_49676" data-name="Path 49676" d="M45.506,31.715c0-7.048-6.274-8.335-9.048-8.335s-5.747,2.675-6.639,3.863-5.452,6.443-12.878,6.142S0,28.373,0,16.346,10.6,0,16.941,0,28.136,4.062,29.819,5.845s3.667,4.062,6.639,4.062,8.982-2.178,9.048-8.123" transform="translate(176.922 216.153) rotate(-90)" fill="#fcfcfc" stroke="#d8e1ff" stroke-width="2"/>
      <path id="Rectangle_21381-4" data-name="Rectangle 21381" d="M0,0H163.4a30,30,0,0,1,30,30V170.647a0,0,0,0,1,0,0H0a0,0,0,0,1,0,0V0A0,0,0,0,1,0,0Z" transform="translate(44.368 0)" fill="#fcfcfc"/>
    </g>
    <g id="Group_000000006" data-name="Group 000000006" transform="translate(149.6 0)">
      <path id="Path_49669-4" data-name="Path 49669" d="M45.506,31.715c0-7.048-6.274-8.335-9.048-8.335s-5.747,2.675-6.639,3.863-5.452,6.443-12.878,6.142S0,28.373,0,16.346,10.6,0,16.941,0,28.136,4.062,29.819,5.845s3.667,4.062,6.639,4.062,8.982-2.178,9.048-8.123" transform="translate(79.096 216.153) rotate(-90)" fill="#fcfcfc" stroke="#d8e1ff" stroke-width="2"/>
      <path id="Path_49673" data-name="Path 49673" d="M45.506,31.715c0-7.048-6.274-8.335-9.048-8.335s-5.747,2.675-6.639,3.863-5.452,6.443-12.878,6.142S0,28.373,0,16.346,10.6,0,16.941,0,28.136,4.062,29.819,5.845s3.667,4.062,6.639,4.062,8.982-2.178,9.048-8.123" transform="translate(0 26.173)" fill="#fcfcfc" stroke="#d8e1ff" stroke-width="2"/>
      <path id="Path_49674" data-name="Path 49674" d="M45.506,31.715c0-7.048-6.274-8.335-9.048-8.335s-5.747,2.675-6.639,3.863-5.452,6.443-12.878,6.142S0,28.373,0,16.346,10.6,0,16.941,0,28.136,4.062,29.819,5.845s3.667,4.062,6.639,4.062,8.982-2.178,9.048-8.123" transform="translate(284.412 44.571) rotate(180)" fill="#fcfcfc" stroke="#d8e1ff" stroke-width="2"/>
      <rect id="Rectangle_21381-5" data-name="Rectangle 21381" width="193.4" height="170.647" transform="translate(45.506 0)" fill="#fcfcfc"/>
    </g>
  </g>
</svg>
