<svg xmlns="http://www.w3.org/2000/svg" width="22.244" height="22.414" viewBox="0 0 22.244 22.414">
  <path id="Path_49680" data-name="Path 49680" d="M.576-222.18q.23-.691,1.843-1.152a19.137,19.137,0,0,1,3.571-.634,10.654,10.654,0,0,1,3.4.173q1.44.346,1.325,1.267Q9.332-215.5,9.562-203.286q0,.806-1.21,1.21a10.278,10.278,0,0,1-2.88.461,8.211,8.211,0,0,1-3-.4A2.128,2.128,0,0,1,.922-203.4,57.083,57.083,0,0,1,0-214.058,38.561,38.561,0,0,1,.576-222.18Zm19.009,19.239q-.115.691-1.382,1.037a8.871,8.871,0,0,1-2.938.23,9.459,9.459,0,0,1-2.938-.634,2.241,2.241,0,0,1-1.5-1.44,62.961,62.961,0,0,1,0-10.772,34.57,34.57,0,0,1,1.267-8.007q.23-.691,1.9-1.037a17.917,17.917,0,0,1,3.629-.346,10.634,10.634,0,0,1,3.341.461q1.382.461,1.267,1.382Q20.276-215.268,19.585-202.941Z" transform="translate(0 224.023)" fill="#2bd988"/>
</svg>
